<?xml version="1.0" encoding="UTF-8"?>
<svg id="Layer_2" data-name="Layer 2" xmlns="http://www.w3.org/2000/svg" viewBox="0 0 491.41 491.13">
  <defs>
    <style>
      .cls-1 {
        fill: none;
      }

      .cls-2 {
        fill: #fff;
      }

      .cls-3 {
        fill: #ff5001;
      }
    </style>
  </defs>
  <g id="Layer_1-2" data-name="Layer 1">
    <g>
      <path class="cls-1" d="M384.81,200.45c0,40.06,0,80.12,0,120.18v28.92c0-9.64,0-19.28,0-28.92,0-40.06,0-80.12,0-120.18Z"/>
      <path class="cls-3" d="M489.79,34.43C485.48,17.87,468.34-.16,442.72,0c-49.14,.3-98.28,.23-147.43,.17-16.38-.02-32.76-.04-49.14-.04-32.76,0-65.52,.02-98.29,.02s-65.52-.02-98.29-.09c-12.73-.03-23.89,3.52-33.37,12C4.53,22.51,0,35.88,0,51.28,.06,180,.03,308.72,.07,437.44c0,4.64,.28,9.31,.79,13.93,2.31,20.85,23.1,39.71,44.08,39.72,134.04,.06,268.08,.06,402.12,0,22.71-.01,44.31-21.63,44.32-44.27,.05-134.04,.04-268.08-.04-402.12,0-3.43-.68-6.93-1.54-10.27Zm-127.81,194.65c-.05,6.41-1.89,8.17-8.42,8.19-21.12,.04-42.23,.01-63.35,.02q-7.12,0-7.13,7.36c0,65.17,0,130.35,0,195.52,0,1.83,.1,3.68-.12,5.48-.49,3.99-2.48,6.18-6.89,6.14-14.8-.13-29.59-.1-44.39-.03-4.41,.02-6.32-2.32-6.66-6.36-.13-1.49-.04-2.99-.04-4.49,0-65.51,0-131.01,0-196.52v-6.8c-2.42-.12-4.37-.29-6.32-.29-21.28-.02-42.56,0-63.84-.02-7.19-.01-8.7-1.58-8.72-8.82-.02-10.14-.04-20.28,.01-30.43,.03-6.23,2.12-8.3,8.45-8.3,66.34-.02,132.68-.02,199.02,0,6.21,0,8.36,2.14,8.41,8.43,.09,10.31,.08,20.62,0,30.92Zm72.35,222.66c-12.8,.02-25.6,0-38.4,0-10.36,0-11.12-.79-11.12-11.44,0-30.25,0-60.5,0-90.76v-28.92c0-40.06,0-80.12,0-120.18,0-9.21,1.53-10.74,10.62-10.74,12.97,0,25.93-.03,38.9,.01,6.51,.02,8.58,2.1,8.58,8.71,.02,81.61,.02,163.23,0,244.84,0,6.77-1.75,8.44-8.58,8.46Z"/>
      <path class="cls-2" d="M353.57,189.73c-66.34-.02-132.68-.02-199.02,0-6.33,0-8.41,2.07-8.45,8.3-.06,10.14-.03,20.28-.01,30.43,.02,7.24,1.53,8.81,8.72,8.82,21.28,.03,42.56,0,63.84,.02,1.95,0,3.9,.18,6.32,.29v6.8c0,65.51,0,131.01,0,196.52,0,1.5-.09,3,.04,4.49,.35,4.04,2.25,6.38,6.66,6.36,14.8-.07,29.6-.1,44.39,.03,4.41,.04,6.4-2.15,6.89-6.14,.22-1.8,.12-3.65,.12-5.48,0-65.17,0-130.35,0-195.52q0-7.36,7.13-7.36c21.12,0,42.23,.02,63.35-.02,6.53-.01,8.37-1.78,8.42-8.19,.08-10.31,.08-20.62,0-30.92-.05-6.29-2.2-8.42-8.41-8.43Z"/>
      <path class="cls-2" d="M434.33,189.73c-12.97-.04-25.93-.02-38.9-.01-9.09,0-10.62,1.53-10.62,10.74,0,40.06,0,80.12,0,120.18,0,9.64,0,19.28,0,28.92,0,30.25,0,60.5,0,90.76,0,10.65,.77,11.44,11.12,11.44,12.8,0,25.6,.02,38.4,0,6.83-.01,8.58-1.69,8.58-8.46,.02-81.61,.02-163.23,0-244.84,0-6.62-2.07-8.69-8.58-8.71Z"/>
    </g>
  </g>
</svg>